<svg xmlns="http://www.w3.org/2000/svg" viewBox="0 0 520 160" fill="#000000">
  <!-- Apple mark scaled to ~100px tall, vertically centred -->
  <g transform="translate(8, 16) scale(0.122)">
    <path d="M788.1 340.9c-5.8 4.5-108.2 62.2-108.2 190.5 0 148.4 130.3 200.9 134.2 202.2-.6 3.2-20.7 71.9-68.7 141.9-42.8 61.6-87.5 123.1-155.5 123.1s-85.5-39.5-164-39.5c-76.5 0-103.7 40.8-165.9 40.8s-105-57.8-155.5-127.4C46 790.7 0 663 0 541.8c0-207.5 135.4-317.3 268.8-317.3 71 0 130.3 46.4 174.9 46.4 42.8 0 109.3-49.1 189.3-49.1 30.4 0 108.2 2.6 168.6 71.9zm-56.4-216.1c29.8-35.4 51.2-84.7 51.2-134 0-6.9-.6-13.9-1.9-19.5-48.4 1.9-106.2 32.3-141.3 73.1-27.2 30.4-52.5 79.7-52.5 129.7 0 7.7 1.3 15.5 1.9 18.1 3.2.6 8.4 1.3 13.6 1.3 43.5 0 98.3-29.2 129-68.7z"/>
  </g>
  <!-- "Music" text -->
  <text x="118" y="115" font-family="-apple-system, SF Pro Display, Helvetica Neue, Arial, sans-serif"
        font-weight="500" font-size="90" letter-spacing="-1">Music</text>
</svg>
